<?xml version="1.0" encoding="utf-8"?>
<svg version="1.1" xmlns:xlink="http://www.w3.org/1999/xlink" width="10px" height="70px" preserveAspectRatio="xMidYMin meet" viewBox="386 145  8 70" xmlns="http://www.w3.org/2000/svg">
  <path d="M 292 210  L 385 210  A 5 5 0 0 0 390 205 L 390 155  A 5 5 0 0 1 395 150 " stroke-width="2" stroke="#0099cc" fill="none" />
  <path d="M 293.5 206.5  A 3.5 3.5 0 0 0 290 210 A 3.5 3.5 0 0 0 293.5 213.5 A 3.5 3.5 0 0 0 297 210 A 3.5 3.5 0 0 0 293.5 206.5 Z M 393 157.6  L 400 150  L 393 142.4  L 393 157.6  Z " fill-rule="nonzero" fill="#0099cc" stroke="none" />
</svg>