<?xml version="1.0" encoding="utf-8"?>
<svg version="1.1" xmlns:xlink="http://www.w3.org/1999/xlink" width="10px" height="55px" preserveAspectRatio="xMidYMin meet" viewBox="386 540  8 55" xmlns="http://www.w3.org/2000/svg">
  <path d="M 292 590  L 385 590  A 5 5 0 0 0 390 585 L 390 550  A 5 5 0 0 1 395 545 " stroke-width="2" stroke="#0099cc" fill="none" />
  <path d="M 293.5 586.5  A 3.5 3.5 0 0 0 290 590 A 3.5 3.5 0 0 0 293.5 593.5 A 3.5 3.5 0 0 0 297 590 A 3.5 3.5 0 0 0 293.5 586.5 Z M 393 552.6  L 400 545  L 393 537.4  L 393 552.6  Z " fill-rule="nonzero" fill="#0099cc" stroke="none" />
</svg>