<?xml version="1.0" encoding="utf-8"?>
<svg version="1.1" xmlns:xlink="http://www.w3.org/1999/xlink" width="186px" height="10px" preserveAspectRatio="xMinYMid meet" viewBox="499 541  186 8" xmlns="http://www.w3.org/2000/svg">
  <path d="M 501 545  L 675 545  A 5 5 0 0 1 680 550 L 680 592  A 5 5 0 0 0 685 597 L 686 597  " stroke-width="2" stroke="#0099cc" fill="none" />
  <path d="M 502.5 541.5  A 3.5 3.5 0 0 0 499 545 A 3.5 3.5 0 0 0 502.5 548.5 A 3.5 3.5 0 0 0 506 545 A 3.5 3.5 0 0 0 502.5 541.5 Z M 685 604.6  L 692 597  L 685 589.4  L 685 604.6  Z " fill-rule="nonzero" fill="#0099cc" stroke="none" />
</svg>