<?xml version="1.0" encoding="utf-8"?>
<svg version="1.1" xmlns:xlink="http://www.w3.org/1999/xlink" width="20px" height="20px" preserveAspectRatio="xMinYMid meet" viewBox="677 771  20 18" xmlns="http://www.w3.org/2000/svg">
  <path d="M 501 779  L 679.5 779  A 0.5 0.5 0 0 1 680 779.5 A 0.5 0.5 0 0 0 680.5 780 L 686 780  " stroke-width="2" stroke="#0099cc" fill="none" />
  <path d="M 502.5 775.5  A 3.5 3.5 0 0 0 499 779 A 3.5 3.5 0 0 0 502.5 782.5 A 3.5 3.5 0 0 0 506 779 A 3.5 3.5 0 0 0 502.5 775.5 Z M 685 787.6  L 692 780  L 685 772.4  L 685 787.6  Z " fill-rule="nonzero" fill="#0099cc" stroke="none" />
</svg>