<?xml version="1.0" encoding="utf-8"?>
<svg version="1.1" xmlns:xlink="http://www.w3.org/1999/xlink" width="10px" height="200px" preserveAspectRatio="xMidYMin meet" viewBox="176 205  8 200" xmlns="http://www.w3.org/2000/svg">
  <path d="M 115 400  L 175 400  A 5 5 0 0 0 180 395 L 180 215  A 5 5 0 0 1 185 210 L 193 210  " stroke-width="2" stroke="#0099cc" fill="none" />
  <path d="M 116.5 396.5  A 3.5 3.5 0 0 0 113 400 A 3.5 3.5 0 0 0 116.5 403.5 A 3.5 3.5 0 0 0 120 400 A 3.5 3.5 0 0 0 116.5 396.5 Z M 192 217.6  L 199 210  L 192 202.4  L 192 217.6  Z " fill-rule="nonzero" fill="#0099cc" stroke="none" />
</svg>