<?xml version="1.0" encoding="utf-8"?>
<svg version="1.1" xmlns:xlink="http://www.w3.org/1999/xlink" width="24px" height="10px" preserveAspectRatio="xMinYMid meet" viewBox="175 586  24 8" xmlns="http://www.w3.org/2000/svg">
  <path d="M 115 400  L 175 400  A 5 5 0 0 1 180 405 L 180 585  A 5 5 0 0 0 185 590 L 193 590  " stroke-width="2" stroke="#0099cc" fill="none" />
  <path d="M 116.5 396.5  A 3.5 3.5 0 0 0 113 400 A 3.5 3.5 0 0 0 116.5 403.5 A 3.5 3.5 0 0 0 120 400 A 3.5 3.5 0 0 0 116.5 396.5 Z M 192 597.6  L 199 590  L 192 582.4  L 192 597.6  Z " fill-rule="nonzero" fill="#0099cc" stroke="none" />
</svg>