<?xml version="1.0" encoding="utf-8"?>
<svg version="1.1" xmlns:xlink="http://www.w3.org/1999/xlink" width="20px" height="20px" preserveAspectRatio="xMinYMid meet" viewBox="195 669  20 18" xmlns="http://www.w3.org/2000/svg">
  <path d="M 115 400  L 195 400  A 5 5 0 0 1 200 405 L 200 673  A 5 5 0 0 0 205 678 " stroke-width="2" stroke="#0099cc" fill="none" />
  <path d="M 116.5 396.5  A 3.5 3.5 0 0 0 113 400 A 3.5 3.5 0 0 0 116.5 403.5 A 3.5 3.5 0 0 0 120 400 A 3.5 3.5 0 0 0 116.5 396.5 Z M 203 685.6  L 210 678  L 203 670.4  L 203 685.6  Z " fill-rule="nonzero" fill="#0099cc" stroke="none" />
</svg>