<?xml version="1.0" encoding="utf-8"?>
<svg version="1.1" xmlns:xlink="http://www.w3.org/1999/xlink" width="21px" height="20px" preserveAspectRatio="xMinYMid meet" viewBox="294 669  21 18" xmlns="http://www.w3.org/2000/svg">
  <path d="M 303 678  L 395 678  A 5 5 0 0 0 400 673 L 400 638  A 5 5 0 0 1 405 633 L 405 633  " stroke-width="2" stroke="#0099cc" fill="none" />
  <path d="M 304.5 674.5  A 3.5 3.5 0 0 0 301 678 A 3.5 3.5 0 0 0 304.5 681.5 A 3.5 3.5 0 0 0 308 678 A 3.5 3.5 0 0 0 304.5 674.5 Z M 404 640.6  L 411 633  L 404 625.4  L 404 640.6  Z " fill-rule="nonzero" fill="#0099cc" stroke="none" />
</svg>