<?xml version="1.0" encoding="utf-8"?>
<svg version="1.1" xmlns:xlink="http://www.w3.org/1999/xlink" width="18px" height="10px" preserveAspectRatio="xMinYMid meet" viewBox="685 681  18 8" xmlns="http://www.w3.org/2000/svg">
  <path d="M 512 755  L 685 755  A 5 5 0 0 0 690 750 L 690 690  A 5 5 0 0 1 695 685 L 697 685  " stroke-width="2" stroke="#0099cc" fill="none" />
  <path d="M 513.5 751.5  A 3.5 3.5 0 0 0 510 755 A 3.5 3.5 0 0 0 513.5 758.5 A 3.5 3.5 0 0 0 517 755 A 3.5 3.5 0 0 0 513.5 751.5 Z M 696 692.6  L 703 685  L 696 677.4  L 696 692.6  Z " fill-rule="nonzero" fill="#0099cc" stroke="none" />
</svg>