<?xml version="1.0" encoding="utf-8"?>
<svg version="1.1" xmlns:xlink="http://www.w3.org/1999/xlink" width="185px" height="10px" preserveAspectRatio="xMinYMid meet" viewBox="510 863  185 8" xmlns="http://www.w3.org/2000/svg">
  <path d="M 512 867  L 689.5 867  A 0.5 0.5 0 0 1 690 867.5 A 0.5 0.5 0 0 0 690.5 868 L 697 868  " stroke-width="2" stroke="#0099cc" fill="none" />
  <path d="M 513.5 863.5  A 3.5 3.5 0 0 0 510 867 A 3.5 3.5 0 0 0 513.5 870.5 A 3.5 3.5 0 0 0 517 867 A 3.5 3.5 0 0 0 513.5 863.5 Z M 696 875.6  L 703 868  L 696 860.4  L 696 875.6  Z " fill-rule="nonzero" fill="#0099cc" stroke="none" />
</svg>