<?xml version="1.0" encoding="utf-8"?>
<svg version="1.1" xmlns:xlink="http://www.w3.org/1999/xlink" width="21px" height="20px" preserveAspectRatio="xMinYMid meet" viewBox="283 201  21 18" xmlns="http://www.w3.org/2000/svg">
  <path d="M 292 210  L 385 210  A 5 5 0 0 1 390 215 L 390 289  A 5 5 0 0 0 395 294 " stroke-width="2" stroke="#0099cc" fill="none" />
  <path d="M 293.5 206.5  A 3.5 3.5 0 0 0 290 210 A 3.5 3.5 0 0 0 293.5 213.5 A 3.5 3.5 0 0 0 297 210 A 3.5 3.5 0 0 0 293.5 206.5 Z M 393 301.6  L 400 294  L 393 286.4  L 393 301.6  Z " fill-rule="nonzero" fill="#0099cc" stroke="none" />
</svg>